<svg xmlns="http://www.w3.org/2000/svg" viewBox="578.1812133789062 656.6900634765625 226.10845947265625 133.905517578125" id="drawable-svg" width="194.10845947265625" height="101.905517578125"><path d="M 622.9511991867819 738.2448374080357 Q 622.9511991867819 738.2448374080357 623.2992398820309 738.1974424667974 623.64728057728 738.1500475255591 623.64728057728 738.1500475255591 623.64728057728 738.1500475255591 623.9636411061424 737.9974217682891 624.280001635005 737.844796011019 624.5337144247025 737.6018795102448 624.7874272143999 737.3589630094706 624.9536570893558 737.049534124787 625.1198869643117 736.7401052401033 625.1823621861737 736.3944530266607 625.2448374080357 736.0488008132181 625.1974424667974 735.7007601179691 625.1500475255591 735.35271942272 624.9974217682891 735.0363588938576 624.844796011019 734.719998364995 624.6018795102448 734.4662855752975 624.3589630094706 734.2125727856001 624.049534124787 734.0463429106442 623.7401052401033 733.8801130356883 623.3944530266607 733.8176378138263 623.0488008132181 733.7551625919643 620.2289890581869 733.7683255523635 617.4091773031557 733.7814885127627 612.166888824883 735.3946099316242 606.9246003466104 737.0077313504858 603.0990130327086 740.1062429995595 599.2734257188067 743.2047546486334 596.6255710204368 747.3917484708825 593.9777163220671 751.5787422931317 594.1981807227417 757.0326715878805 594.4186451234164 762.4866008826292 598.8110888083925 766.5536708795596 603.2035324933685 770.6207408764901 609.3735320980957 772.579883997124 615.543531702823 774.539027117758 622.1345935891184 774.5946320326268 628.7256554754138 774.6502369474956 634.9448768253831 771.6313543828251 641.1640981753523 768.6124718181545 645.0842905210945 764.4908056476252 649.0044828668367 760.3691394770959 650.9320522572699 756.7686294129044 652.8596216477031 753.1681193487127 655.4678357518767 747.5187836715214 658.0760498560503 741.8694479943301 661.0489286016922 735.4351036450078 664.0218073473341 729.0007592956853 666.7841810857672 723.3314184804017 669.5465548242003 717.662077665118 672.6665466467931 711.3552665089674 675.786538469386 705.0484553528167 678.8014412953153 698.1374762777309 681.8163441212445 691.226497202645 684.9480602464598 683.9405431921998 688.0797763716753 676.6545891817547 688.2005610268872 676.2313812597486 688.321345682099 675.8081733377423 688.3054402754527 675.3683541746504 688.2895348688064 674.9285350115584 688.1384963323239 674.5151571714646 687.9874577958415 674.1017793313706 687.716070833821 673.7553071174359 687.4446838718007 673.4088349035012 687.0795137309492 673.1631834300395 686.7143435900977 672.9175319565777 686.2911356680916 672.7967473013658 685.8679277460853 672.675962646154 685.4281085829934 672.6918680528003 684.9882894199014 672.7077734594466 684.5749115798076 672.858811995929 684.1615337397136 673.0098505324115 683.8150615257789 673.2812374944319 683.4685893118442 673.5526244564522 683.2229378383824 673.9177945973038 682.9772863649207 674.2829647381553 679.6660652267321 681.4345646476202 676.3548440885435 688.586164557085 672.9553410193666 695.081516361864 669.5558379501899 701.5768681666432 665.8470179825707 707.5827187702225 662.1381980149515 713.5885693738019 658.7429481729605 719.0445520779781 655.3476983309695 724.5005347821544 651.9183337012988 730.8177001903116 648.4889690716282 737.1348655984689 644.9939800212528 743.7872598326717 641.4989909708773 750.4396540668745 638.1875978191903 754.948099866752 634.8762046675032 759.4565456666296 631.1558802817556 761.5411893291352 627.435555896008 763.6258329916409 622.7684348394362 763.5955428152145 618.1013137828643 763.565252638788 612.7292959523259 761.7905957987316 607.3572781217875 760.0159389586751 605.628859139586 756.6550606335088 603.9004401573845 753.2941823083424 606.5719498125443 749.2273063015052 609.2434594677042 745.160430294668 613.5162407639643 742.446781955257 Z" stroke-width="2" stroke="#000" fill="#000"/><path d="M 667.3138578348259 761.566779159602 Q 667.3138578348259 761.566779159602 667.1336758724308 761.8623758620113 666.9534939100358 762.1579725644204 666.9534939100358 762.1579725644204 666.9534939100358 762.1579725644204 666.8734750851067 762.494781022902 666.7934562601778 762.8315894813835 666.8214333728229 763.1766405373387 666.8494104854678 763.5216915932939 666.9826449409732 763.8412092452537 667.1158793964785 764.1607268972135 667.3413292780402 764.4234345311938 667.566779159602 764.6861421651741 667.8623758620113 764.8663241275692 668.1579725644204 765.0465060899642 668.494781022902 765.1265249148933 668.8315894813835 765.2065437398222 669.1766405373387 765.1785666271771 669.5216915932939 765.1505895145322 669.8412092452537 765.0173550590268 670.1607268972135 764.8841206035215 670.4234345311938 764.6586707219598 670.6861421651741 764.433220840398 672.1804485706355 762.6609825133824 673.6747549760969 760.8887441863667 676.422547995764 757.529945716109 679.1703410154312 754.1711472458512 681.8749358253632 750.4370431308414 684.5795306352952 746.7029390158316 687.1551434913174 742.8035232533944 689.7307563473396 738.9041074909572 693.318635733258 737.52279109539 696.9065151191764 736.1414746998228 698.0141410664122 738.4681106130857 699.121767013648 740.7947465263487 697.5709677422925 745.2622652308646 696.020168470937 749.7297839353804 698.0358279317 753.8003804178642 700.0514873924631 757.870976900348 704.626257321333 759.8127085580184 709.201027250203 761.7544402156889 716.5605974509041 761.5146338100192 723.9201676516052 761.2748274043496 724.9083972423732 760.9432725467802 725.8966268331411 760.611717689211 726.7340329394801 759.9910105435189 727.5714390458193 759.3703033978268 728.1760505234895 758.5212031041532 728.7806620011598 757.6721028104796 729.0932952661511 756.677725221599 729.4059285311424 755.6833476327183 729.3959808612333 754.6410293552663 729.3860331913241 753.5987110778142 729.0544783337548 752.6104814870462 728.7229234761855 751.6222518962783 728.1022163304934 750.7848457899393 727.4815091848013 749.9474396836001 726.6324088911277 749.3428282059299 725.7833085974542 748.7382167282595 724.7889310085735 748.4255834632683 723.7945534196929 748.112950198277 722.7522351422408 748.1228978681861 721.7099168647887 748.1328455380952 717.358450910802 748.8115440574823 713.0069849568154 749.4902425768694 711.4274383437421 747.3815505707894 709.8478917306688 745.2728585647094 710.9737630135812 740.7084306261678 712.0996342964937 736.1440026876262 710.9876164270975 732.5020411941082 709.8755985577011 728.8600797005902 705.9106875449056 727.2466934509185 701.9457765321102 725.6333072012469 696.7936950614985 726.0619256416688 691.6416135908867 726.4905440820908 687.9321709023602 728.6720432860141 684.2227282138336 730.8535424899375 682.0025453823416 734.5844852396128 679.7823625508497 738.3154279892883 677.6450042153228 742.6011940810075 675.5076458797959 746.8869601727267 672.8971516741735 751.67644562478 Z" stroke-width="2" stroke="#000" fill="#000"/><path d="M 758.4184229086466 706.2198566280588 Q 758.4184229086466 706.2198566280588 758.3932096047342 705.8408094642336 758.3679963008219 705.4617623004085 758.3679963008219 705.4617623004085 758.3679963008219 705.4617623004085 758.2268850085472 705.1090583646626 758.0857737162725 704.7563544289168 757.8425773921033 704.4645188399138 757.5993810679342 704.172683250911 757.2779054625289 703.9702829094406 756.9564298571235 703.7678825679703 756.5881432425911 703.6747298296618 756.2198566280588 703.5815770913534 755.8408094642336 703.6067903952658 755.4617623004085 703.6320036991781 755.1090583646626 703.7731149914528 754.7563544289168 703.9142262837275 754.4645188399138 704.1574226078967 754.172683250911 704.4006189320658 753.9702829094406 704.7220945374711 753.7678825679703 705.0435701428765 753.6747298296618 705.4118567574089 753.5815770913534 705.7801433719412 752.8629829890058 708.3860043846236 752.1443888866581 710.9918653973059 750.5711302096362 716.1737977345452 748.9978715326142 721.3557300717846 747.248353093727 726.3502328901918 745.4988346548397 731.3447357085992 744.5677889985363 736.2675592746809 743.6367433422331 741.1903828407626 745.6197342136259 745.0154405728208 747.6027250850186 748.840498304879 751.7723927906941 750.6447927262836 755.9420604963695 752.4490871476881 760.2326247469191 753.0632426663647 764.5231889974685 753.6773981850413 768.6831930201124 753.6692386711513 772.8431970427564 753.6610791572614 779.2527734842918 752.244741146007 785.662349925827 750.8284031347525 786.3739501400439 750.145440523316 787.0855503542609 749.4624779118794 787.5512753215323 748.5930453104929 788.0170002888038 747.7236127091064 788.1912616044366 746.7528162384867 788.3655229200693 745.7820197678669 788.2312626723394 744.804887750495 788.0970024246094 743.8277557331231 787.6673629420106 742.9399366589386 787.2377234594119 742.052117584754 786.5547608479753 741.3405173705371 785.8717982365388 740.6289171563201 785.0023656351523 740.1631921890487 784.1329330337658 739.6974672217772 783.1621365631461 739.5232059061444 782.1913400925263 739.3489445905117 781.2142080751544 739.4832048382416 780.2370760577825 739.6174650859716 779.3492569835979 740.0471045685704 778.4614379094133 740.4767440511691 772.7116143312915 740.9902773775855 766.9617907531695 741.5038107040017 762.2975722248605 740.0648500483092 757.6333536965514 738.6258893926167 756.1478002717769 734.2651075826743 754.6622468470024 729.9043257727319 755.5958779883017 724.6840385336565 756.5295091296011 719.463751294581 757.2192151990341 714.9688734797556 Z" stroke-width="2" stroke="#000" fill="#000"/><path d="M 729.7109605047583 719.6876840380665 Q 729.7109605047583 719.6876840380665 729.3607613403701 719.7889294954059 729.0105621759818 719.8901749527452 729.0105621759818 719.8901749527452 729.0105621759818 719.8901749527452 728.7087895456104 720.0946825979049 728.407016915239 720.2991902430646 728.1832104265186 720.5869414428478 727.9594039377984 720.8746926426311 727.8354713291965 721.2175203047227 727.7115387205947 721.5603479668143 727.6996113793307 721.924693731028 727.6876840380665 722.2890394952417 727.7889294954059 722.6392386596299 727.8901749527452 722.9894378240182 728.0946825979049 723.2912104543896 728.2991902430646 723.592983084761 728.5869414428478 723.8167895734814 728.8746926426311 724.0405960622016 729.2175203047227 724.1645286708035 729.5603479668143 724.2884612794053 729.924693731028 724.3003886206693 730.2890394952417 724.3123159619335 732.4347107651105 724.0558111208836 734.5803820349793 723.7993062798337 739.0500206925408 723.3664279767693 743.5196593501023 722.9335496737049 751.3164663231322 721.6280890005145 759.1132732961621 720.3226283273241 759.7556208789058 720.0136308359956 760.3979684616494 719.7046333446672 760.9133918399045 719.2122629476569 761.4288152181596 718.7198925506467 761.7668611604965 718.0923458929603 762.1049071028336 717.464799235274 762.2324853171122 716.7635049561404 762.3600635313907 716.0622106770069 762.2646857731074 715.3558163466723 762.1693080148241 714.6494220163379 761.8603105234956 714.0070744335942 761.5513130321672 713.3647268508506 761.0589426351569 712.8493034725955 760.5665722381467 712.3338800943404 759.9390255804603 711.9958341520035 759.311478922774 711.6577882096664 758.6101846436404 711.5302099953878 757.9088903645069 711.4026317811093 757.2024960341723 711.4980095393926 756.4961017038379 711.5933872976759 749.4569711768678 713.8182000619855 742.4178406498977 716.0430128262951 738.1687293074592 717.2781032732307 Z" stroke-width="2" stroke="#000" fill="#000"/></svg>